<?xml version="1.0" encoding="UTF-8" standalone="no"?>
<!-- Created with Inkscape (http://www.inkscape.org/) -->

<svg
   width="450"
   height="128"
   viewBox="-1 -1 120 35"
   version="1.1"
   id="svg1"
   xmlns:inkscape="http://www.inkscape.org/namespaces/inkscape"
   xmlns="http://www.w3.org/2000/svg"
   xmlns:svg="http://www.w3.org/2000/svg">

  <path
       d="m 21.92147,22.648965 3.782908,0.848729 Q 22.988444,34.43418 13.434175,34.43418 q -6.2805985,0 -9.8695118,-5.068128 Q -6.6868961e-7,24.297925 -6.6868961e-7,16.901854 -6.6868961e-7,9.2632881 3.7344091,4.63165 7.4688188,1.197122e-5 13.749417,1.197122e-5 q 9.311775,0 11.954961,10.64549302878 l -3.904155,0.775981 q -2.133949,-7.905309 -8.075055,-7.905309 -4.3891443,0 -6.8140857,3.6859109 -2.400692,3.6616611 -2.400692,10.3060011 0,6.086603 2.4734403,9.772514 2.4734402,3.661661 6.5473414,3.661661 6.329097,0 8.390298,-8.293299 z M 42.266729,34.43418 q -6.377596,0 -9.94226,-4.946881 -3.564664,-4.971129 -3.564664,-12.173205 0,-7.5173188 3.73441,-12.4157004 3.73441,-4.89838162878 9.893761,-4.89838162878 6.135101,0 9.845262,4.82563342878 3.71016,4.8013839 3.71016,12.1247066 0,7.03233 -3.613163,12.270204 -3.588913,5.213624 -10.063506,5.213624 z m 0.097,-3.370669 q 4.340645,0 6.789836,-3.952654 2.449191,-3.952655 2.449191,-10.184754 0,-6.401845 -2.546188,-9.9665092 -2.52194,-3.5646639 -6.717088,-3.5646639 -4.243648,0 -6.741337,3.8556569 -2.49769,3.8556572 -2.49769,10.0877562 0,6.086603 2.521939,9.91801 2.521939,3.807158 6.741337,3.807158 z m 39.647793,-8.414546 3.782909,0.848729 Q 83.078494,34.43418 73.524224,34.43418 q -6.280598,0 -9.869511,-5.068128 -3.564664,-5.068127 -3.564664,-12.464198 0,-7.6385659 3.73441,-12.270204 3.73441,-4.63163802878 10.015008,-4.63163802878 9.311775,0 11.954961,10.64549302878 l -3.904156,0.775981 q -2.133948,-7.905309 -8.075055,-7.905309 -4.389144,0 -6.814085,3.6859109 -2.400692,3.6616611 -2.400692,10.3060011 0,6.086603 2.47344,9.772514 2.473441,3.661661 6.547342,3.661661 6.329097,0 8.390297,-8.293299 z m 35.088898,11.130481 h -4.53464 l -9.89376,-18.259809 -7.590065,9.433022 v 8.826787 h -4.14665 V 0.67899556 h 4.14665 V 19.884531 L 110.04384,0.67899556 h 4.48614 L 105.5577,12.270215 Z"
       id="text1"
       transform="scale(1.016756,0.98352015)"
       aria-label="COCK" />
</svg>
